<mxfile host="Electron" modified="2023-05-23T22:36:56.255Z" agent="Mozilla/5.0 (Windows NT 10.0; Win64; x64) AppleWebKit/537.36 (KHTML, like Gecko) draw.io/21.2.8 Chrome/112.0.5615.165 Electron/24.2.0 Safari/537.36" etag="vacJAxWHmn3WqQtKyt6X" version="21.2.8" type="device">
  <diagram name="Page-1" id="FxitBaApEOWrgbqJlyL4">
    <mxGraphModel dx="1036" dy="614" grid="1" gridSize="10" guides="1" tooltips="1" connect="1" arrows="1" fold="1" page="1" pageScale="1" pageWidth="1100" pageHeight="850" math="0" shadow="0">
      <root>
        <mxCell id="0" />
        <mxCell id="1" parent="0" />
        <mxCell id="hIB5LNgimCdA9HKy_4q2-3" style="rounded=0;orthogonalLoop=1;jettySize=auto;html=1;exitX=1;exitY=0.5;exitDx=0;exitDy=0;entryX=0;entryY=0.5;entryDx=0;entryDy=0;startArrow=classic;startFill=1;dashed=1;strokeWidth=2;" parent="1" source="hIB5LNgimCdA9HKy_4q2-5" target="hIB5LNgimCdA9HKy_4q2-6" edge="1">
          <mxGeometry relative="1" as="geometry" />
        </mxCell>
        <mxCell id="hIB5LNgimCdA9HKy_4q2-5" value="&lt;b style=&quot;font-size: 14px;&quot;&gt;WebSite&lt;br&gt;&lt;/b&gt;&lt;b style=&quot;border-color: var(--border-color); font-size: 14px;&quot;&gt;https://www.portal.nalog.gov.by/grp&lt;/b&gt;&lt;b style=&quot;font-size: 14px;&quot;&gt;&lt;br&gt;&lt;/b&gt;&lt;br style=&quot;font-size: 14px;&quot;&gt;https://www.portal.nalog.gov.by/grp&lt;br style=&quot;font-size: 14px;&quot;&gt;/getData?unp=&amp;lt;ТутУНП&amp;gt;" style="rounded=0;whiteSpace=wrap;html=1;fontSize=14;strokeWidth=2;" parent="1" vertex="1">
          <mxGeometry x="60" y="100" width="275.59" height="157.48" as="geometry" />
        </mxCell>
        <mxCell id="hIB5LNgimCdA9HKy_4q2-60" style="edgeStyle=orthogonalEdgeStyle;rounded=0;orthogonalLoop=1;jettySize=auto;html=1;exitX=1;exitY=0.5;exitDx=0;exitDy=0;entryX=0;entryY=0.5;entryDx=0;entryDy=0;entryPerimeter=0;strokeWidth=2;dashed=1;startArrow=classic;startFill=1;" parent="1" source="hIB5LNgimCdA9HKy_4q2-6" target="hIB5LNgimCdA9HKy_4q2-59" edge="1">
          <mxGeometry relative="1" as="geometry" />
        </mxCell>
        <mxCell id="hIB5LNgimCdA9HKy_4q2-6" value="" style="rounded=0;whiteSpace=wrap;html=1;fillColor=#E6E6E6;fontSize=14;strokeWidth=2;" parent="1" vertex="1">
          <mxGeometry x="400" y="159.05" width="39.37" height="39.37" as="geometry" />
        </mxCell>
        <mxCell id="hIB5LNgimCdA9HKy_4q2-7" style="rounded=0;orthogonalLoop=1;jettySize=auto;html=1;exitX=1;exitY=0.5;exitDx=0;exitDy=0;entryX=0;entryY=0;entryDx=56.89000000000001;entryDy=66.25;entryPerimeter=0;dashed=1;strokeWidth=2;" parent="1" source="hIB5LNgimCdA9HKy_4q2-9" target="hIB5LNgimCdA9HKy_4q2-29" edge="1">
          <mxGeometry relative="1" as="geometry" />
        </mxCell>
        <mxCell id="hIB5LNgimCdA9HKy_4q2-8" style="rounded=0;orthogonalLoop=1;jettySize=auto;html=1;exitX=1;exitY=0.5;exitDx=0;exitDy=0;entryX=0;entryY=0;entryDx=30.63;entryDy=110;entryPerimeter=0;dashed=1;strokeWidth=2;" parent="1" source="hIB5LNgimCdA9HKy_4q2-9" target="hIB5LNgimCdA9HKy_4q2-33" edge="1">
          <mxGeometry relative="1" as="geometry" />
        </mxCell>
        <mxCell id="hIB5LNgimCdA9HKy_4q2-9" value="" style="rounded=0;whiteSpace=wrap;html=1;fillColor=none;strokeColor=none;" parent="1" vertex="1">
          <mxGeometry x="60" y="499.74" width="80" height="120" as="geometry" />
        </mxCell>
        <mxCell id="hIB5LNgimCdA9HKy_4q2-10" value="&lt;b&gt;Хостинг&lt;/b&gt;" style="verticalAlign=top;align=center;shape=cube;size=10;direction=south;html=1;boundedLbl=1;spacingLeft=5;whiteSpace=wrap;strokeWidth=2;" parent="1" vertex="1">
          <mxGeometry x="367.5" y="280" width="402.5" height="298.48" as="geometry" />
        </mxCell>
        <mxCell id="hIB5LNgimCdA9HKy_4q2-12" value="&lt;b&gt;cPanel&lt;/b&gt;" style="verticalAlign=top;align=center;shape=cube;size=10;direction=south;fontStyle=0;html=1;boundedLbl=1;spacingLeft=5;whiteSpace=wrap;strokeWidth=2;" parent="1" vertex="1">
          <mxGeometry x="387.5" y="320" width="360" height="248.48" as="geometry" />
        </mxCell>
        <mxCell id="hIB5LNgimCdA9HKy_4q2-13" style="rounded=0;orthogonalLoop=1;jettySize=auto;html=1;exitX=0;exitY=0;exitDx=51.26;exitDy=65;exitPerimeter=0;entryX=0;entryY=0;entryDx=20.63;entryDy=0;entryPerimeter=0;dashed=1;startArrow=classic;startFill=1;strokeWidth=2;" parent="1" source="hIB5LNgimCdA9HKy_4q2-15" target="hIB5LNgimCdA9HKy_4q2-33" edge="1">
          <mxGeometry relative="1" as="geometry" />
        </mxCell>
        <mxCell id="hIB5LNgimCdA9HKy_4q2-15" value="&lt;b&gt;Серверная часть&lt;/b&gt;&lt;br&gt;(NodeJS)&lt;br&gt;" style="verticalAlign=top;align=center;shape=cube;size=10;direction=south;html=1;boundedLbl=1;spacingLeft=5;whiteSpace=wrap;strokeWidth=2;" parent="1" vertex="1">
          <mxGeometry x="425" y="448.48" width="120" height="51.26" as="geometry" />
        </mxCell>
        <mxCell id="hIB5LNgimCdA9HKy_4q2-20" style="edgeStyle=none;rounded=0;orthogonalLoop=1;jettySize=auto;html=1;exitX=0.855;exitY=1;exitDx=0;exitDy=-4.35;exitPerimeter=0;entryX=0;entryY=0;entryDx=25;entryDy=100;entryPerimeter=0;dashed=1;startArrow=classic;startFill=1;strokeWidth=2;" parent="1" source="hIB5LNgimCdA9HKy_4q2-21" target="hIB5LNgimCdA9HKy_4q2-55" edge="1">
          <mxGeometry relative="1" as="geometry" />
        </mxCell>
        <mxCell id="7-XOzqe8eWKMpxP6fuZY-2" style="rounded=0;orthogonalLoop=1;jettySize=auto;html=1;exitX=0.145;exitY=1;exitDx=0;exitDy=-4.35;exitPerimeter=0;entryX=0;entryY=0;entryDx=0;entryDy=55;entryPerimeter=0;dashed=1;startArrow=classic;startFill=1;strokeWidth=2;" parent="1" source="hIB5LNgimCdA9HKy_4q2-21" target="hIB5LNgimCdA9HKy_4q2-15" edge="1">
          <mxGeometry relative="1" as="geometry" />
        </mxCell>
        <mxCell id="hIB5LNgimCdA9HKy_4q2-21" value="MySQL" style="shape=cylinder3;whiteSpace=wrap;html=1;boundedLbl=1;backgroundOutline=1;size=15;strokeWidth=2;fontStyle=1" parent="1" vertex="1">
          <mxGeometry x="525" y="359.74" width="60" height="58.74" as="geometry" />
        </mxCell>
        <mxCell id="hIB5LNgimCdA9HKy_4q2-27" value="Пользователь" style="shape=umlActor;verticalLabelPosition=bottom;verticalAlign=top;html=1;strokeWidth=2;" parent="1" vertex="1">
          <mxGeometry x="85" y="529.74" width="30" height="60" as="geometry" />
        </mxCell>
        <mxCell id="hIB5LNgimCdA9HKy_4q2-28" style="rounded=0;orthogonalLoop=1;jettySize=auto;html=1;exitX=0;exitY=0;exitDx=35;exitDy=0;exitPerimeter=0;entryX=0;entryY=0;entryDx=30.63;entryDy=120;entryPerimeter=0;strokeWidth=2;startArrow=classic;startFill=1;dashed=1;" parent="1" source="hIB5LNgimCdA9HKy_4q2-29" target="hIB5LNgimCdA9HKy_4q2-15" edge="1">
          <mxGeometry relative="1" as="geometry" />
        </mxCell>
        <mxCell id="7-XOzqe8eWKMpxP6fuZY-1" style="edgeStyle=orthogonalEdgeStyle;rounded=0;orthogonalLoop=1;jettySize=auto;html=1;exitX=0;exitY=0;exitDx=0;exitDy=73.75;exitPerimeter=0;entryX=0.5;entryY=1;entryDx=0;entryDy=0;elbow=vertical;curved=1;dashed=1;strokeWidth=2;startArrow=classic;startFill=1;" parent="1" source="hIB5LNgimCdA9HKy_4q2-29" target="hIB5LNgimCdA9HKy_4q2-5" edge="1">
          <mxGeometry relative="1" as="geometry" />
        </mxCell>
        <mxCell id="hIB5LNgimCdA9HKy_4q2-29" value="&lt;span&gt;Android&lt;/span&gt;&lt;br&gt;&lt;span style=&quot;font-weight: normal;&quot;&gt;(app-release.apk)&lt;/span&gt;" style="verticalAlign=top;align=center;shape=cube;size=10;direction=south;html=1;boundedLbl=1;spacingLeft=5;whiteSpace=wrap;strokeWidth=2;fontStyle=1" parent="1" vertex="1">
          <mxGeometry x="80" y="425.04" width="157.5" height="56.89" as="geometry" />
        </mxCell>
        <mxCell id="hIB5LNgimCdA9HKy_4q2-33" value="&lt;b&gt;Браузер&lt;/b&gt;&lt;br&gt;(index.html)" style="verticalAlign=top;align=center;shape=cube;size=10;direction=south;html=1;boundedLbl=1;spacingLeft=5;whiteSpace=wrap;strokeWidth=2;" parent="1" vertex="1">
          <mxGeometry x="215" y="600" width="110" height="51.26" as="geometry" />
        </mxCell>
        <mxCell id="hIB5LNgimCdA9HKy_4q2-34" style="rounded=0;orthogonalLoop=1;jettySize=auto;html=1;exitX=0.75;exitY=0.999;exitDx=0;exitDy=0;exitPerimeter=0;entryX=0;entryY=0;entryDx=35;entryDy=0;entryPerimeter=0;endArrow=classic;endFill=1;startArrow=classic;startFill=1;strokeWidth=2;dashed=1;" parent="1" source="hIB5LNgimCdA9HKy_4q2-36" target="hIB5LNgimCdA9HKy_4q2-33" edge="1">
          <mxGeometry relative="1" as="geometry" />
        </mxCell>
        <mxCell id="hIB5LNgimCdA9HKy_4q2-35" style="edgeStyle=none;rounded=0;orthogonalLoop=1;jettySize=auto;html=1;exitX=0;exitY=0;exitDx=40;exitDy=153.75;exitPerimeter=0;entryX=0;entryY=0;entryDx=51.26;entryDy=10;entryPerimeter=0;strokeWidth=2;startArrow=classic;startFill=1;dashed=1;" parent="1" source="hIB5LNgimCdA9HKy_4q2-36" target="hIB5LNgimCdA9HKy_4q2-15" edge="1">
          <mxGeometry relative="1" as="geometry" />
        </mxCell>
        <mxCell id="hIB5LNgimCdA9HKy_4q2-36" value="&lt;b&gt;Веб-сайт и панель администратора&amp;nbsp;&lt;/b&gt;&lt;br&gt;(Apache)" style="verticalAlign=top;align=center;shape=cube;size=10;direction=south;html=1;boundedLbl=1;spacingLeft=5;whiteSpace=wrap;strokeWidth=2;" parent="1" vertex="1">
          <mxGeometry x="580" y="481.93" width="153.75" height="70" as="geometry" />
        </mxCell>
        <mxCell id="hIB5LNgimCdA9HKy_4q2-37" value="HTML/CSS/JS" style="text;html=1;align=center;verticalAlign=middle;resizable=0;points=[];autosize=1;strokeColor=none;fillColor=none;" parent="1" vertex="1">
          <mxGeometry x="420" y="600" width="100" height="30" as="geometry" />
        </mxCell>
        <mxCell id="hIB5LNgimCdA9HKy_4q2-38" value="XML" style="text;html=1;align=center;verticalAlign=middle;resizable=0;points=[];autosize=1;strokeColor=none;fillColor=none;" parent="1" vertex="1">
          <mxGeometry x="172.79000000000002" y="388.47999999999996" width="50" height="30" as="geometry" />
        </mxCell>
        <mxCell id="hIB5LNgimCdA9HKy_4q2-39" value="JSON" style="text;html=1;align=center;verticalAlign=middle;resizable=0;points=[];autosize=1;strokeColor=none;fillColor=none;" parent="1" vertex="1">
          <mxGeometry x="265" y="432.85" width="60" height="30" as="geometry" />
        </mxCell>
        <mxCell id="hIB5LNgimCdA9HKy_4q2-48" value="Swagger UI / JSON" style="text;html=1;align=center;verticalAlign=middle;resizable=0;points=[];autosize=1;strokeColor=none;fillColor=none;" parent="1" vertex="1">
          <mxGeometry x="237.5" y="559.74" width="130" height="30" as="geometry" />
        </mxCell>
        <mxCell id="hIB5LNgimCdA9HKy_4q2-55" value="phpmyadmin" style="verticalAlign=top;align=center;shape=cube;size=10;direction=south;html=1;boundedLbl=1;spacingLeft=5;whiteSpace=wrap;strokeWidth=2;fontStyle=1" parent="1" vertex="1">
          <mxGeometry x="628.75" y="418.48" width="100" height="40" as="geometry" />
        </mxCell>
        <mxCell id="hIB5LNgimCdA9HKy_4q2-59" value="БД" style="shape=cylinder3;whiteSpace=wrap;html=1;boundedLbl=1;backgroundOutline=1;size=15;strokeWidth=2;fontStyle=1" parent="1" vertex="1">
          <mxGeometry x="520" y="149.36" width="60" height="58.74" as="geometry" />
        </mxCell>
      </root>
    </mxGraphModel>
  </diagram>
</mxfile>
